<?xml version="1.0" encoding="utf-8"?>
<!DOCTYPE svg PUBLIC "-//W3C//DTD SVG 1.0//EN" "http://www.w3.org/TR/2001/REC-SVG-20010904/DTD/svg10.dtd">
<svg version="1.0" xmlns="http://www.w3.org/2000/svg" width="1024px" height="1024px" viewBox="0 0 1024 1024" preserveAspectRatio="xMidYMid meet">
 <g fill="#3371e0">
  <path d="M181 810.3 c-69.6 -89.4 -127.1 -163.6 -127.9 -164.8 -1.3 -2 3 -22.1 43.9 -206.1 24.9 -112.2 45.8 -204.4 46.4 -205.1 1.1 -1.2 367.3 -182.3 368.6 -182.3 1.3 0 367.5 181.1 368.6 182.3 0.6 0.7 21.5 92.9 46.4 205.1 40.9 184 45.2 204.1 43.9 206.1 -0.8 1.2 -58.3 75.4 -127.9 164.8 l-126.5 162.7 -204.5 0 -204.5 0 -126.5 -162.7z m153.6 -40.2 c4.8 -2.2 12.9 -11.3 14.8 -16.7 1.5 -4.5 0.6 -9.3 -2.5 -13.3 -1.1 -1.3 -1.9 -3.8 -1.9 -5.5 0 -2.8 2.4 -5.6 20.3 -23.3 11.1 -11 22.5 -22 25.2 -24.4 7.5 -6.4 21.5 -20.2 21.5 -21.1 0 -0.4 -3.5 -3.4 -7.7 -6.5 -11.7 -8.6 -25.6 -23.2 -34.3 -36.1 -1.9 -2.8 -3.8 -5.2 -4.2 -5.2 -0.6 0 -22.1 20.6 -53.3 51.2 -14.8 14.5 -15.6 14.8 -24.5 10.3 -2.7 -1.4 -6.3 -2.5 -8 -2.5 -9.6 0 -23 13.1 -23 22.5 0 4.7 4 10.6 14.9 21.9 5.9 6.1 18.3 19 27.5 28.6 21.2 22 25.5 24.5 35.2 20.1z m117.2 -109.8 c1.8 -1 8.1 -6.5 14 -12.3 5.9 -5.8 13 -12.5 15.7 -14.9 2.8 -2.4 10.2 -9.4 16.5 -15.6 6.3 -6.1 13 -12.4 14.9 -13.9 1.9 -1.5 5.4 -4.9 7.8 -7.6 l4.3 -4.8 -8.3 -5.6 c-4.6 -3.1 -11 -8.1 -14.3 -11.1 -3.2 -3.1 -9.3 -8.6 -13.4 -12.4 -10.2 -9.3 -28.8 -31.4 -33.1 -39.6 -3.4 -6.2 -8.3 -13.5 -9.2 -13.5 -0.4 0 -4.4 3.5 -9 7.8 -4.5 4.3 -13 12.3 -18.8 17.8 -31.1 29.2 -44.2 42.1 -45.6 44.7 -1.2 2.4 -1.3 3.8 -0.4 7.4 1.6 6.1 9.1 20.2 15.9 29.6 5.9 8.2 22.8 25.2 30 30.1 2.3 1.6 4.2 3.2 4.2 3.6 0 1.1 21.7 12 23.8 12 1 0 3.2 -0.8 5 -1.7z m112.9 -74.5 c2.9 -1.3 7 -4.8 17.9 -15.5 3.5 -3.5 6.6 -6.3 6.7 -6.3 0.2 0 3.3 -2.8 6.8 -6.3 10.1 -9.8 29 -27.7 34.9 -33.1 3 -2.7 11.1 -10.4 18 -17 6.9 -6.7 20.3 -19.5 29.8 -28.5 9.5 -9 16.9 -16.7 16.5 -17.1 -0.4 -0.4 -3.3 -1.7 -6.3 -3 -3 -1.2 -7.3 -3.5 -9.5 -5 -2.2 -1.4 -4.7 -2.9 -5.5 -3.2 -2.3 -0.9 -22.7 -16.3 -29.9 -22.7 -10.4 -9.1 -13.5 -12.2 -20.1 -20.1 -3.4 -4.1 -7.7 -9.2 -9.6 -11.2 -1.8 -2 -4.7 -5.7 -6.2 -8.2 -2.9 -4.5 -2.9 -4.5 -4.8 -2.6 -1 1.1 -7.7 7.2 -14.8 13.7 -7.1 6.4 -15.3 14 -18.1 16.8 -2.9 2.7 -7.4 7 -10.1 9.5 -2.7 2.5 -10 9.2 -16.3 15 -6.3 5.8 -15.5 14.4 -20.5 19.1 -5 4.7 -11.3 10.6 -14.1 13 -2.7 2.4 -6.3 5.9 -7.9 7.7 -2.3 2.6 -3.6 3.2 -6.8 3.2 -3.7 0 -4 -0.3 -5.8 -4.6 -1.2 -2.6 -2 -6.8 -2 -9.8 0 -5.1 0.2 -5.4 6.1 -11.2 3.3 -3.2 9.1 -8.8 12.7 -12.4 3.7 -3.6 9.2 -8.8 12.2 -11.5 3 -2.6 11.4 -10.5 18.5 -17.4 7.2 -6.9 19.1 -18.2 26.4 -25.1 7.4 -6.9 17.2 -16.1 21.8 -20.5 l8.4 -8 -1.7 -3.4 c-0.9 -1.9 -2.7 -6.3 -3.9 -9.8 l-2.2 -6.3 -14.5 13.8 c-7.9 7.5 -17.5 16.6 -21.3 20.1 -3.9 3.5 -10.6 9.8 -15 14 -4.4 4.2 -16.1 15.3 -26 24.6 -9.9 9.3 -22.7 21.4 -28.5 27 -5.8 5.5 -12.9 12 -15.8 14.5 -3.2 2.7 -6.3 6.5 -7.8 9.7 l-2.6 5.2 2.1 7 c5.9 19.4 21.8 43.1 43.9 65.5 6.4 6.5 14.6 14 18.2 16.7 3.6 2.6 7.3 5.5 8.3 6.4 5.7 5.1 23.7 15.5 30.3 17.5 4.1 1.2 4.9 1.2 8.1 -0.2z m161.8 -138.9 c1.7 -1 4.2 -2.5 5.8 -3.1 1.5 -0.7 2.7 -1.8 2.7 -2.4 0 -0.7 7.4 -8.3 16.5 -17 14.9 -14.3 16.7 -16.4 19 -22.1 2.9 -7.3 3.1 -11.8 1 -22.3 -3.6 -18.4 -14.4 -39.3 -28.9 -56.5 -5.5 -6.4 -22.7 -23.6 -26 -26 -23.1 -16.5 -34.8 -22.5 -50.1 -25.5 -9.9 -2 -19.7 0.2 -27.3 6.1 -1.3 1 -9.9 9 -19.2 17.9 -18.2 17.4 -21.6 22.2 -20.7 28.9 0.7 5.2 3 15.5 3.7 16.1 0.3 0.3 1.9 3.4 3.4 7 7.5 17.3 25.1 41.5 41.7 57.5 21.8 20.9 35.1 30.2 56 39.1 13.8 5.9 16.4 6.2 22.4 2.3z"/>
  <path d="M728 399.7 c-6.7 -1.9 -20.4 -9.5 -29.5 -16.4 -10.1 -7.6 -26.7 -24.8 -32.8 -34 -6.5 -9.8 -13.2 -22.8 -15.1 -29.2 -2 -6.8 -2.1 -18 -0.2 -22.6 2.4 -5.6 5.7 -7 16.1 -7 8.4 0.1 9.7 0.4 19 4.4 16.9 7.3 33.7 21 48.7 39.8 8.1 10 13.2 19 16.9 29.7 2.4 6.7 2.9 9.8 2.9 17.8 0 10.6 -1 13.9 -4.9 16.4 -3.3 2.2 -15.1 2.8 -21.1 1.1z m4 -43.2 c0 -1 -5.1 -8.9 -9.8 -15.2 -11 -14.9 -32.4 -31.2 -45.8 -35.1 -8.8 -2.6 -10.7 -1 -7.9 6.3 2 5.3 1.9 5.3 10.6 7.5 14.6 3.8 34 17.4 45.8 32.3 2.6 3.2 5 5.3 5.8 5 0.7 -0.3 1.3 -0.7 1.3 -0.8z"/>
 </g>
 <g fill="#ffffff">
  <path d="M317.9 772.7 c-3.3 -1.5 -9.7 -7.5 -21.5 -19.7 -9.2 -9.6 -21.6 -22.5 -27.5 -28.6 -11 -11.5 -14.1 -16 -15.3 -22.7 -1.6 -8.5 6.3 -21 16.1 -25.8 7.1 -3.3 13.5 -3.2 20.7 0.3 l5.9 3 13.1 -12.9 c46 -45.1 53.8 -52.3 56.5 -52.3 2.2 0 3.6 1.3 7.7 6.9 2.7 3.8 8.2 10.7 12.1 15.4 6.7 7.9 9.7 10.6 25.3 23 3 2.4 5.7 5.1 5.8 6.1 0.4 1.9 0 2.3 -43 43.6 -12.9 12.4 -23.9 23.3 -24.6 24.2 -0.9 1.3 -0.7 2.2 0.8 4.1 3.2 4.1 4.5 11.7 3 17.3 -1.8 6.2 -9.9 16 -15.4 18.5 -5.7 2.6 -13.9 2.5 -19.7 -0.4z"/>
  <path d="M431 659.4 c-6 -3.1 -11 -6 -11 -6.4 0 -0.4 -1.9 -2 -4.2 -3.6 -7.4 -5.1 -24.4 -22.2 -30.5 -30.9 -12.6 -17.6 -18.5 -33.7 -15.4 -41.4 1.4 -3.1 15.6 -17.2 45.7 -45.1 10.3 -9.6 21.1 -19.9 24 -22.7 3.3 -3.5 5.9 -5.3 7.5 -5.3 2.5 0 2.9 0.5 9.9 12.5 4.7 8.1 5.9 9.7 17.4 23.6 5.4 6.6 13.3 15.1 17.5 18.9 4.2 3.8 10.3 9.4 13.5 12.5 3.3 3 9.7 8 14.4 11.2 7.4 5 10.2 8.1 10.2 11.4 0 0.5 -0.5 0.9 -1.2 0.9 -0.6 0 -4.1 2.9 -7.7 6.4 -12.3 11.9 -31.6 30.3 -36.6 34.7 -2.7 2.4 -9.8 9.1 -15.7 14.9 -5.9 5.8 -12.2 11.3 -14 12.3 -6.1 3.2 -11.5 2.3 -23.8 -3.9z"/>
  <path d="M553.6 589 c-6.6 -2 -24.6 -12.4 -30.3 -17.5 -1 -0.9 -4.7 -3.8 -8.3 -6.4 -13 -9.6 -31.5 -29.8 -45.8 -49.8 -9.4 -13.2 -18.2 -33.6 -18.2 -42.2 0 -5.6 4.3 -13.1 10.2 -18.2 2.9 -2.4 10 -8.9 15.8 -14.4 5.8 -5.6 18.6 -17.7 28.5 -27 9.9 -9.3 21.6 -20.4 26 -24.6 4.4 -4.2 11.2 -10.5 15 -14 3.9 -3.5 12 -11.1 18 -16.9 18.8 -17.9 18.7 -17.9 21.5 -17.3 2 0.3 2.8 1.5 4.2 5.7 0.9 2.9 2.8 7.8 4.2 10.9 1.4 3.1 2.6 6.2 2.6 7 0 1.3 -6.7 7.9 -35.9 35.2 -4.7 4.4 -14.4 13.7 -21.6 20.6 -7.1 6.9 -15.5 14.8 -18.5 17.4 -3 2.7 -8.5 7.9 -12.2 11.5 -3.6 3.6 -9.4 9.2 -12.7 12.4 -3.9 3.8 -6.1 6.8 -6.1 8.2 0 2.8 3.6 11.4 4.8 11.4 0.5 0 2.2 -1.5 3.8 -3.2 1.6 -1.8 5.2 -5.3 7.9 -7.7 2.8 -2.4 9.1 -8.3 14.1 -13 5 -4.7 14.2 -13.3 20.5 -19.1 6.3 -5.8 13.6 -12.5 16.3 -15 2.7 -2.5 7.2 -6.8 10.1 -9.5 2.8 -2.8 11 -10.4 18.1 -16.8 7.1 -6.5 14 -12.9 15.4 -14.2 3.7 -3.7 6.4 -3.2 9.3 1.8 1.4 2.3 3.7 5.6 5.2 7.2 1.4 1.7 5.8 6.8 9.7 11.5 7.7 9.2 11.9 13.4 21.9 22.1 7.2 6.4 27.6 21.8 29.9 22.7 0.8 0.3 3.3 1.8 5.5 3.2 2.2 1.5 6.5 3.8 9.5 5 11.8 5 11.8 5.2 -9.7 25.6 -9.8 9.3 -23.4 22.3 -30.3 29 -6.9 6.6 -15 14.3 -18 17 -5.9 5.4 -24.8 23.3 -34.9 33.1 -3.5 3.5 -6.6 6.3 -6.8 6.3 -0.1 0 -3.2 2.8 -6.7 6.3 -10.9 10.7 -15 14.2 -17.9 15.5 -3.2 1.4 -9.8 1.5 -14.1 0.2z"/>
  <path d="M712.5 452 c-10.7 -2.8 -35.1 -15.7 -45.1 -23.7 -13.9 -11.2 -29.5 -26.2 -36.9 -35.3 -11.7 -14.6 -22.4 -31.2 -27.1 -42 -1.5 -3.6 -3.1 -6.7 -3.4 -7 -1.1 -0.9 -3.3 -12.5 -3.7 -19.1 -0.7 -10.4 1.1 -13.1 20.7 -31.9 9.3 -8.9 17.9 -16.9 19.2 -17.9 5.4 -4.2 11.2 -6.3 18.9 -6.8 19.1 -1.4 34.9 5.1 64.5 26.2 3.3 2.4 20.5 19.6 26 26 11.2 13.3 21 30.2 26.3 46 2.8 8.2 3.2 10.5 3.8 21.8 0.5 9 0.3 10.4 -2.1 16.5 -2.4 6.3 -3.7 7.9 -19.1 22.6 -9.1 8.7 -16.5 16.3 -16.5 17 0 0.6 -1.2 1.7 -2.7 2.4 -1.6 0.7 -4.8 2.4 -7.3 3.7 -4.5 2.6 -9.7 3 -15.5 1.5z m33.9 -56.5 c3.4 -2.2 4.6 -5.8 4.6 -13.3 -0.1 -19.5 -17 -46.5 -42.7 -68 -9.7 -8.1 -15.9 -12 -25.8 -16.3 -19.4 -8.3 -30.5 -4.7 -30.5 9.9 0 8.3 6.3 22.8 16.7 38.5 6.1 9.2 22.7 26.4 32.8 34 9.1 6.9 22.9 14.5 29.5 16.4 5.3 1.5 12.1 1 15.4 -1.2z"/>
  <path d="M727.9 361.1 c-0.9 -0.3 -4.1 -3.5 -7.1 -7.1 -12.8 -15.1 -30.4 -27.3 -44.7 -31 -3.8 -0.9 -7.3 -2 -7.9 -2.4 -1.4 -0.8 -5.2 -11.1 -5.2 -13.9 0 -3.5 1.9 -4.7 7.3 -4.7 8.9 0 17 3.4 29.7 12.3 17.7 12.3 37.2 36.3 35.4 43.4 -0.7 2.4 -5 4.4 -7.5 3.4z"/>
 </g>
</svg>